<mxfile host="app.diagrams.net" modified="2023-10-18T13:42:20.920Z" agent="Mozilla/5.0 (Macintosh; Intel Mac OS X 10_15_7) AppleWebKit/537.36 (KHTML, like Gecko) Chrome/118.0.0.0 Safari/537.36" etag="RNqbF07K06UhpXkaO2fU" version="22.0.4" type="google">
  <diagram name="P치gina-1" id="dLVSG557z2f5tPSblH_D">
    <mxGraphModel grid="1" page="1" gridSize="10" guides="1" tooltips="1" connect="1" arrows="1" fold="1" pageScale="1" pageWidth="827" pageHeight="1169" math="0" shadow="0">
      <root>
        <mxCell id="0" />
        <mxCell id="1" parent="0" />
        <mxCell id="mUoU4r-U4uNJ2KsjmGZh-1" style="edgeStyle=orthogonalEdgeStyle;rounded=0;orthogonalLoop=1;jettySize=auto;html=1;exitX=0.5;exitY=1;exitDx=0;exitDy=0;entryX=0.5;entryY=0;entryDx=0;entryDy=0;" edge="1" parent="1" source="vAKe2aDI0_CaZcynF2Yo-1" target="vAKe2aDI0_CaZcynF2Yo-2">
          <mxGeometry relative="1" as="geometry" />
        </mxCell>
        <mxCell id="vAKe2aDI0_CaZcynF2Yo-1" value="merge_sort(arreglo, lado izq del arreglo, lado drch del arreglo)" style="shape=process;whiteSpace=wrap;html=1;backgroundOutline=1;" vertex="1" parent="1">
          <mxGeometry x="189" y="360" width="160" height="90" as="geometry" />
        </mxCell>
        <mxCell id="mUoU4r-U4uNJ2KsjmGZh-7" style="edgeStyle=orthogonalEdgeStyle;rounded=0;orthogonalLoop=1;jettySize=auto;html=1;exitX=0.5;exitY=1;exitDx=0;exitDy=0;entryX=0.5;entryY=0;entryDx=0;entryDy=0;" edge="1" parent="1" source="vAKe2aDI0_CaZcynF2Yo-2" target="vAKe2aDI0_CaZcynF2Yo-4">
          <mxGeometry relative="1" as="geometry" />
        </mxCell>
        <mxCell id="vAKe2aDI0_CaZcynF2Yo-2" value="lado derecho del arreglo &amp;gt; lado izquierdo del arreglo" style="rhombus;whiteSpace=wrap;html=1;" vertex="1" parent="1">
          <mxGeometry x="204" y="490" width="130" height="120" as="geometry" />
        </mxCell>
        <mxCell id="mUoU4r-U4uNJ2KsjmGZh-5" style="edgeStyle=orthogonalEdgeStyle;rounded=0;orthogonalLoop=1;jettySize=auto;html=1;exitX=0.5;exitY=1;exitDx=0;exitDy=0;entryX=0.5;entryY=0;entryDx=0;entryDy=0;" edge="1" parent="1" source="vAKe2aDI0_CaZcynF2Yo-3" target="vAKe2aDI0_CaZcynF2Yo-5">
          <mxGeometry relative="1" as="geometry" />
        </mxCell>
        <mxCell id="mUoU4r-U4uNJ2KsjmGZh-8" style="edgeStyle=orthogonalEdgeStyle;rounded=0;orthogonalLoop=1;jettySize=auto;html=1;exitX=0;exitY=0.5;exitDx=0;exitDy=0;entryX=0;entryY=0.5;entryDx=0;entryDy=0;" edge="1" parent="1" source="vAKe2aDI0_CaZcynF2Yo-3" target="vAKe2aDI0_CaZcynF2Yo-1">
          <mxGeometry relative="1" as="geometry">
            <mxPoint x="149" y="400" as="targetPoint" />
            <Array as="points">
              <mxPoint x="150" y="760" />
              <mxPoint x="150" y="405" />
            </Array>
          </mxGeometry>
        </mxCell>
        <mxCell id="vAKe2aDI0_CaZcynF2Yo-3" value="mandar llamar la funci칩n merge sort (arreglo, lado izquierdo, mitad)" style="rounded=0;whiteSpace=wrap;html=1;" vertex="1" parent="1">
          <mxGeometry x="209" y="730" width="120" height="60" as="geometry" />
        </mxCell>
        <mxCell id="mUoU4r-U4uNJ2KsjmGZh-6" style="edgeStyle=orthogonalEdgeStyle;rounded=0;orthogonalLoop=1;jettySize=auto;html=1;exitX=0.5;exitY=1;exitDx=0;exitDy=0;entryX=0.5;entryY=0;entryDx=0;entryDy=0;" edge="1" parent="1" source="vAKe2aDI0_CaZcynF2Yo-4" target="vAKe2aDI0_CaZcynF2Yo-3">
          <mxGeometry relative="1" as="geometry" />
        </mxCell>
        <mxCell id="vAKe2aDI0_CaZcynF2Yo-4" value="mitad =&amp;nbsp; lado izq + (lado drch - lado izq) / 2" style="shape=parallelogram;perimeter=parallelogramPerimeter;whiteSpace=wrap;html=1;fixedSize=1;" vertex="1" parent="1">
          <mxGeometry x="191.5" y="630" width="155" height="70" as="geometry" />
        </mxCell>
        <mxCell id="mUoU4r-U4uNJ2KsjmGZh-4" style="edgeStyle=orthogonalEdgeStyle;rounded=0;orthogonalLoop=1;jettySize=auto;html=1;exitX=0.5;exitY=1;exitDx=0;exitDy=0;entryX=0.5;entryY=0;entryDx=0;entryDy=0;" edge="1" parent="1" source="vAKe2aDI0_CaZcynF2Yo-5" target="mUoU4r-U4uNJ2KsjmGZh-3">
          <mxGeometry relative="1" as="geometry" />
        </mxCell>
        <mxCell id="mUoU4r-U4uNJ2KsjmGZh-9" style="edgeStyle=orthogonalEdgeStyle;rounded=0;orthogonalLoop=1;jettySize=auto;html=1;exitX=1;exitY=0.5;exitDx=0;exitDy=0;entryX=0.988;entryY=0.433;entryDx=0;entryDy=0;entryPerimeter=0;" edge="1" parent="1" source="vAKe2aDI0_CaZcynF2Yo-5" target="vAKe2aDI0_CaZcynF2Yo-1">
          <mxGeometry relative="1" as="geometry">
            <mxPoint x="389" y="390" as="targetPoint" />
            <Array as="points">
              <mxPoint x="390" y="850" />
              <mxPoint x="390" y="399" />
            </Array>
          </mxGeometry>
        </mxCell>
        <mxCell id="vAKe2aDI0_CaZcynF2Yo-5" value="mandar llamar la funci칩n merge sort (arreglo, mitad +1, lado drch)" style="rounded=0;whiteSpace=wrap;html=1;" vertex="1" parent="1">
          <mxGeometry x="209" y="820" width="120" height="60" as="geometry" />
        </mxCell>
        <mxCell id="mUoU4r-U4uNJ2KsjmGZh-3" value="funci칩n merge (lado izq del arreglo, mitad, lado derecho)" style="rounded=0;whiteSpace=wrap;html=1;" vertex="1" parent="1">
          <mxGeometry x="209" y="910" width="120" height="60" as="geometry" />
        </mxCell>
        <mxCell id="mUoU4r-U4uNJ2KsjmGZh-21" style="edgeStyle=orthogonalEdgeStyle;rounded=0;orthogonalLoop=1;jettySize=auto;html=1;exitX=0.5;exitY=1;exitDx=0;exitDy=0;entryX=0.5;entryY=0;entryDx=0;entryDy=0;" edge="1" parent="1" source="mUoU4r-U4uNJ2KsjmGZh-10" target="mUoU4r-U4uNJ2KsjmGZh-11">
          <mxGeometry relative="1" as="geometry" />
        </mxCell>
        <mxCell id="mUoU4r-U4uNJ2KsjmGZh-10" value="merge(arrgelo, extremo izquierdo, mitad, extremo derecho)" style="shape=process;whiteSpace=wrap;html=1;backgroundOutline=1;" vertex="1" parent="1">
          <mxGeometry x="510" y="70" width="160" height="60" as="geometry" />
        </mxCell>
        <mxCell id="mUoU4r-U4uNJ2KsjmGZh-22" style="edgeStyle=orthogonalEdgeStyle;rounded=0;orthogonalLoop=1;jettySize=auto;html=1;exitX=0.5;exitY=1;exitDx=0;exitDy=0;entryX=0.5;entryY=0;entryDx=0;entryDy=0;" edge="1" parent="1" source="mUoU4r-U4uNJ2KsjmGZh-11" target="mUoU4r-U4uNJ2KsjmGZh-12">
          <mxGeometry relative="1" as="geometry" />
        </mxCell>
        <mxCell id="mUoU4r-U4uNJ2KsjmGZh-11" value="n1 = mitad - extremo izq +1" style="shape=parallelogram;perimeter=parallelogramPerimeter;whiteSpace=wrap;html=1;fixedSize=1;" vertex="1" parent="1">
          <mxGeometry x="530" y="160" width="120" height="60" as="geometry" />
        </mxCell>
        <mxCell id="mUoU4r-U4uNJ2KsjmGZh-23" style="edgeStyle=orthogonalEdgeStyle;rounded=0;orthogonalLoop=1;jettySize=auto;html=1;exitX=0.5;exitY=1;exitDx=0;exitDy=0;entryX=0.5;entryY=0;entryDx=0;entryDy=0;" edge="1" parent="1" source="mUoU4r-U4uNJ2KsjmGZh-12" target="mUoU4r-U4uNJ2KsjmGZh-14">
          <mxGeometry relative="1" as="geometry" />
        </mxCell>
        <mxCell id="mUoU4r-U4uNJ2KsjmGZh-12" value="n1 = extremo drch - mitad" style="shape=parallelogram;perimeter=parallelogramPerimeter;whiteSpace=wrap;html=1;fixedSize=1;" vertex="1" parent="1">
          <mxGeometry x="530" y="240" width="120" height="60" as="geometry" />
        </mxCell>
        <mxCell id="mUoU4r-U4uNJ2KsjmGZh-24" style="edgeStyle=orthogonalEdgeStyle;rounded=0;orthogonalLoop=1;jettySize=auto;html=1;exitX=0.5;exitY=1;exitDx=0;exitDy=0;entryX=0.5;entryY=0;entryDx=0;entryDy=0;" edge="1" parent="1" source="mUoU4r-U4uNJ2KsjmGZh-14" target="mUoU4r-U4uNJ2KsjmGZh-15">
          <mxGeometry relative="1" as="geometry" />
        </mxCell>
        <mxCell id="mUoU4r-U4uNJ2KsjmGZh-14" value="arreglo izq []&lt;br&gt;arreglo drch[]" style="shape=parallelogram;perimeter=parallelogramPerimeter;whiteSpace=wrap;html=1;fixedSize=1;" vertex="1" parent="1">
          <mxGeometry x="530" y="320" width="120" height="60" as="geometry" />
        </mxCell>
        <mxCell id="mUoU4r-U4uNJ2KsjmGZh-25" style="edgeStyle=orthogonalEdgeStyle;rounded=0;orthogonalLoop=1;jettySize=auto;html=1;exitX=0.5;exitY=1;exitDx=0;exitDy=0;entryX=0.5;entryY=0;entryDx=0;entryDy=0;" edge="1" parent="1" source="mUoU4r-U4uNJ2KsjmGZh-15" target="mUoU4r-U4uNJ2KsjmGZh-16">
          <mxGeometry relative="1" as="geometry" />
        </mxCell>
        <mxCell id="mUoU4r-U4uNJ2KsjmGZh-43" style="edgeStyle=orthogonalEdgeStyle;rounded=0;orthogonalLoop=1;jettySize=auto;html=1;exitX=1;exitY=0.5;exitDx=0;exitDy=0;entryX=0.5;entryY=0;entryDx=0;entryDy=0;" edge="1" parent="1" source="mUoU4r-U4uNJ2KsjmGZh-15" target="mUoU4r-U4uNJ2KsjmGZh-17">
          <mxGeometry relative="1" as="geometry">
            <mxPoint x="670" y="660" as="targetPoint" />
            <Array as="points">
              <mxPoint x="671" y="440" />
              <mxPoint x="671" y="640" />
            </Array>
          </mxGeometry>
        </mxCell>
        <mxCell id="mUoU4r-U4uNJ2KsjmGZh-15" value="i &amp;lt; n1" style="rhombus;whiteSpace=wrap;html=1;" vertex="1" parent="1">
          <mxGeometry x="550" y="400" width="80" height="80" as="geometry" />
        </mxCell>
        <mxCell id="mUoU4r-U4uNJ2KsjmGZh-35" style="edgeStyle=orthogonalEdgeStyle;rounded=0;orthogonalLoop=1;jettySize=auto;html=1;exitX=0.5;exitY=1;exitDx=0;exitDy=0;entryX=0.5;entryY=0;entryDx=0;entryDy=0;" edge="1" parent="1" source="mUoU4r-U4uNJ2KsjmGZh-16" target="mUoU4r-U4uNJ2KsjmGZh-29">
          <mxGeometry relative="1" as="geometry" />
        </mxCell>
        <mxCell id="mUoU4r-U4uNJ2KsjmGZh-16" value="arreglo izq[i] = arreglo [extremo izq + 1]" style="rounded=0;whiteSpace=wrap;html=1;" vertex="1" parent="1">
          <mxGeometry x="530" y="500" width="120" height="60" as="geometry" />
        </mxCell>
        <mxCell id="mUoU4r-U4uNJ2KsjmGZh-38" style="edgeStyle=orthogonalEdgeStyle;rounded=0;orthogonalLoop=1;jettySize=auto;html=1;exitX=0.5;exitY=1;exitDx=0;exitDy=0;entryX=0.5;entryY=0;entryDx=0;entryDy=0;" edge="1" parent="1" source="mUoU4r-U4uNJ2KsjmGZh-17" target="mUoU4r-U4uNJ2KsjmGZh-18">
          <mxGeometry relative="1" as="geometry" />
        </mxCell>
        <mxCell id="mUoU4r-U4uNJ2KsjmGZh-44" style="edgeStyle=orthogonalEdgeStyle;rounded=0;orthogonalLoop=1;jettySize=auto;html=1;exitX=1;exitY=0.5;exitDx=0;exitDy=0;entryX=0.942;entryY=0.617;entryDx=0;entryDy=0;entryPerimeter=0;" edge="1" parent="1" source="mUoU4r-U4uNJ2KsjmGZh-17" target="mUoU4r-U4uNJ2KsjmGZh-19">
          <mxGeometry relative="1" as="geometry">
            <mxPoint x="680" y="940" as="targetPoint" />
            <Array as="points">
              <mxPoint x="681" y="680" />
              <mxPoint x="681" y="937" />
            </Array>
          </mxGeometry>
        </mxCell>
        <mxCell id="mUoU4r-U4uNJ2KsjmGZh-17" value="j&amp;lt; n2" style="rhombus;whiteSpace=wrap;html=1;" vertex="1" parent="1">
          <mxGeometry x="550" y="640" width="80" height="80" as="geometry" />
        </mxCell>
        <mxCell id="mUoU4r-U4uNJ2KsjmGZh-39" style="edgeStyle=orthogonalEdgeStyle;rounded=0;orthogonalLoop=1;jettySize=auto;html=1;exitX=0.5;exitY=1;exitDx=0;exitDy=0;entryX=0.5;entryY=0;entryDx=0;entryDy=0;" edge="1" parent="1" source="mUoU4r-U4uNJ2KsjmGZh-18" target="mUoU4r-U4uNJ2KsjmGZh-37">
          <mxGeometry relative="1" as="geometry" />
        </mxCell>
        <mxCell id="mUoU4r-U4uNJ2KsjmGZh-18" value="arreglo_drch[i] = arreglo [mitad + 1 + j]" style="rounded=0;whiteSpace=wrap;html=1;" vertex="1" parent="1">
          <mxGeometry x="530" y="750" width="120" height="60" as="geometry" />
        </mxCell>
        <mxCell id="mUoU4r-U4uNJ2KsjmGZh-46" style="edgeStyle=orthogonalEdgeStyle;rounded=0;orthogonalLoop=1;jettySize=auto;html=1;exitX=0.5;exitY=1;exitDx=0;exitDy=0;entryX=0.5;entryY=0;entryDx=0;entryDy=0;" edge="1" parent="1" source="mUoU4r-U4uNJ2KsjmGZh-19" target="mUoU4r-U4uNJ2KsjmGZh-45">
          <mxGeometry relative="1" as="geometry" />
        </mxCell>
        <mxCell id="mUoU4r-U4uNJ2KsjmGZh-19" value="int i = 0;&lt;br&gt;int j = 0;&lt;br&gt;int k= izq;" style="shape=parallelogram;perimeter=parallelogramPerimeter;whiteSpace=wrap;html=1;fixedSize=1;" vertex="1" parent="1">
          <mxGeometry x="530" y="900" width="120" height="60" as="geometry" />
        </mxCell>
        <mxCell id="mUoU4r-U4uNJ2KsjmGZh-36" style="edgeStyle=orthogonalEdgeStyle;rounded=0;orthogonalLoop=1;jettySize=auto;html=1;exitX=0;exitY=0.5;exitDx=0;exitDy=0;entryX=0;entryY=0.5;entryDx=0;entryDy=0;" edge="1" parent="1" source="mUoU4r-U4uNJ2KsjmGZh-29" target="mUoU4r-U4uNJ2KsjmGZh-15">
          <mxGeometry relative="1" as="geometry">
            <mxPoint x="480" y="440" as="targetPoint" />
            <Array as="points">
              <mxPoint x="481" y="600" />
              <mxPoint x="481" y="440" />
            </Array>
          </mxGeometry>
        </mxCell>
        <mxCell id="mUoU4r-U4uNJ2KsjmGZh-29" value="i++" style="rounded=0;whiteSpace=wrap;html=1;" vertex="1" parent="1">
          <mxGeometry x="530" y="584.5" width="120" height="30" as="geometry" />
        </mxCell>
        <mxCell id="mUoU4r-U4uNJ2KsjmGZh-41" style="edgeStyle=orthogonalEdgeStyle;rounded=0;orthogonalLoop=1;jettySize=auto;html=1;exitX=0;exitY=0.5;exitDx=0;exitDy=0;entryX=0;entryY=0.5;entryDx=0;entryDy=0;" edge="1" parent="1" source="mUoU4r-U4uNJ2KsjmGZh-37" target="mUoU4r-U4uNJ2KsjmGZh-17">
          <mxGeometry relative="1" as="geometry">
            <mxPoint x="470" y="670" as="targetPoint" />
            <Array as="points">
              <mxPoint x="471" y="855" />
              <mxPoint x="471" y="680" />
            </Array>
          </mxGeometry>
        </mxCell>
        <mxCell id="mUoU4r-U4uNJ2KsjmGZh-37" value="j++" style="rounded=0;whiteSpace=wrap;html=1;" vertex="1" parent="1">
          <mxGeometry x="530" y="840" width="120" height="30" as="geometry" />
        </mxCell>
        <mxCell id="mUoU4r-U4uNJ2KsjmGZh-56" style="edgeStyle=orthogonalEdgeStyle;rounded=0;orthogonalLoop=1;jettySize=auto;html=1;exitX=0.5;exitY=1;exitDx=0;exitDy=0;entryX=0;entryY=0.5;entryDx=0;entryDy=0;" edge="1" parent="1" source="mUoU4r-U4uNJ2KsjmGZh-45" target="mUoU4r-U4uNJ2KsjmGZh-47">
          <mxGeometry relative="1" as="geometry">
            <mxPoint x="710" y="240" as="targetPoint" />
            <Array as="points">
              <mxPoint x="590" y="1100" />
              <mxPoint x="711" y="1100" />
              <mxPoint x="711" y="250" />
            </Array>
          </mxGeometry>
        </mxCell>
        <mxCell id="mUoU4r-U4uNJ2KsjmGZh-76" style="edgeStyle=orthogonalEdgeStyle;rounded=0;orthogonalLoop=1;jettySize=auto;html=1;exitX=1;exitY=0.5;exitDx=0;exitDy=0;entryX=0;entryY=0.5;entryDx=0;entryDy=0;" edge="1" parent="1" source="mUoU4r-U4uNJ2KsjmGZh-45" target="mUoU4r-U4uNJ2KsjmGZh-57">
          <mxGeometry relative="1" as="geometry">
            <mxPoint x="730" y="620" as="targetPoint" />
            <Array as="points">
              <mxPoint x="700" y="1035" />
              <mxPoint x="700" y="1036" />
              <mxPoint x="730" y="1036" />
              <mxPoint x="730" y="625" />
            </Array>
          </mxGeometry>
        </mxCell>
        <mxCell id="mUoU4r-U4uNJ2KsjmGZh-45" value="i &amp;lt; n1 &amp;amp;&amp;amp; j &amp;lt; n2" style="rhombus;whiteSpace=wrap;html=1;" vertex="1" parent="1">
          <mxGeometry x="540" y="990" width="100" height="90" as="geometry" />
        </mxCell>
        <mxCell id="mUoU4r-U4uNJ2KsjmGZh-49" style="edgeStyle=orthogonalEdgeStyle;rounded=0;orthogonalLoop=1;jettySize=auto;html=1;exitX=0.5;exitY=1;exitDx=0;exitDy=0;entryX=0.5;entryY=0;entryDx=0;entryDy=0;" edge="1" parent="1" source="mUoU4r-U4uNJ2KsjmGZh-47" target="mUoU4r-U4uNJ2KsjmGZh-48">
          <mxGeometry relative="1" as="geometry" />
        </mxCell>
        <mxCell id="mUoU4r-U4uNJ2KsjmGZh-51" style="edgeStyle=orthogonalEdgeStyle;rounded=0;orthogonalLoop=1;jettySize=auto;html=1;exitX=1;exitY=0.5;exitDx=0;exitDy=0;entryX=1;entryY=0.5;entryDx=0;entryDy=0;" edge="1" parent="1" source="mUoU4r-U4uNJ2KsjmGZh-47" target="mUoU4r-U4uNJ2KsjmGZh-50">
          <mxGeometry relative="1" as="geometry">
            <mxPoint x="919" y="460" as="targetPoint" />
            <Array as="points">
              <mxPoint x="920" y="250" />
              <mxPoint x="920" y="450" />
            </Array>
          </mxGeometry>
        </mxCell>
        <mxCell id="mUoU4r-U4uNJ2KsjmGZh-47" value="arreglo izq [i] &amp;lt;= arreglo drch [j]&amp;nbsp;" style="rhombus;whiteSpace=wrap;html=1;" vertex="1" parent="1">
          <mxGeometry x="769" y="200" width="120" height="100" as="geometry" />
        </mxCell>
        <mxCell id="mUoU4r-U4uNJ2KsjmGZh-54" style="edgeStyle=orthogonalEdgeStyle;rounded=0;orthogonalLoop=1;jettySize=auto;html=1;exitX=0;exitY=0.5;exitDx=0;exitDy=0;entryX=0;entryY=0.5;entryDx=0;entryDy=0;" edge="1" parent="1" source="mUoU4r-U4uNJ2KsjmGZh-48" target="mUoU4r-U4uNJ2KsjmGZh-52">
          <mxGeometry relative="1" as="geometry">
            <mxPoint x="739" y="530" as="targetPoint" />
            <Array as="points">
              <mxPoint x="740" y="360" />
              <mxPoint x="740" y="525" />
            </Array>
          </mxGeometry>
        </mxCell>
        <mxCell id="mUoU4r-U4uNJ2KsjmGZh-48" value="arreglo [k] = arreglo izq[i]&lt;br&gt;i++;" style="rounded=0;whiteSpace=wrap;html=1;rotation=0;" vertex="1" parent="1">
          <mxGeometry x="769" y="330" width="120" height="60" as="geometry" />
        </mxCell>
        <mxCell id="mUoU4r-U4uNJ2KsjmGZh-55" style="edgeStyle=orthogonalEdgeStyle;rounded=0;orthogonalLoop=1;jettySize=auto;html=1;exitX=0.5;exitY=1;exitDx=0;exitDy=0;entryX=0.5;entryY=0;entryDx=0;entryDy=0;" edge="1" parent="1" source="mUoU4r-U4uNJ2KsjmGZh-50" target="mUoU4r-U4uNJ2KsjmGZh-52">
          <mxGeometry relative="1" as="geometry" />
        </mxCell>
        <mxCell id="mUoU4r-U4uNJ2KsjmGZh-50" value="arreglo [k] = arreglo drch[j]&lt;br&gt;j++" style="rounded=0;whiteSpace=wrap;html=1;rotation=0;" vertex="1" parent="1">
          <mxGeometry x="769" y="420" width="120" height="60" as="geometry" />
        </mxCell>
        <mxCell id="mUoU4r-U4uNJ2KsjmGZh-77" style="edgeStyle=orthogonalEdgeStyle;rounded=0;orthogonalLoop=1;jettySize=auto;html=1;exitX=0.5;exitY=1;exitDx=0;exitDy=0;entryX=0.5;entryY=0;entryDx=0;entryDy=0;" edge="1" parent="1" source="mUoU4r-U4uNJ2KsjmGZh-52" target="mUoU4r-U4uNJ2KsjmGZh-57">
          <mxGeometry relative="1" as="geometry" />
        </mxCell>
        <mxCell id="mUoU4r-U4uNJ2KsjmGZh-52" value="k++" style="rounded=0;whiteSpace=wrap;html=1;" vertex="1" parent="1">
          <mxGeometry x="769" y="510" width="120" height="30" as="geometry" />
        </mxCell>
        <mxCell id="mUoU4r-U4uNJ2KsjmGZh-60" style="edgeStyle=orthogonalEdgeStyle;rounded=0;orthogonalLoop=1;jettySize=auto;html=1;exitX=0.5;exitY=1;exitDx=0;exitDy=0;entryX=0.5;entryY=0;entryDx=0;entryDy=0;" edge="1" parent="1" source="mUoU4r-U4uNJ2KsjmGZh-57" target="mUoU4r-U4uNJ2KsjmGZh-58">
          <mxGeometry relative="1" as="geometry" />
        </mxCell>
        <mxCell id="mUoU4r-U4uNJ2KsjmGZh-72" style="edgeStyle=orthogonalEdgeStyle;rounded=0;orthogonalLoop=1;jettySize=auto;html=1;exitX=1;exitY=0.5;exitDx=0;exitDy=0;entryX=1;entryY=0.5;entryDx=0;entryDy=0;" edge="1" parent="1" source="mUoU4r-U4uNJ2KsjmGZh-57" target="mUoU4r-U4uNJ2KsjmGZh-67">
          <mxGeometry relative="1" as="geometry">
            <mxPoint x="920" y="895" as="targetPoint" />
          </mxGeometry>
        </mxCell>
        <mxCell id="mUoU4r-U4uNJ2KsjmGZh-57" value="i &amp;lt; n1" style="rhombus;whiteSpace=wrap;html=1;" vertex="1" parent="1">
          <mxGeometry x="770" y="575" width="120" height="100" as="geometry" />
        </mxCell>
        <mxCell id="mUoU4r-U4uNJ2KsjmGZh-61" style="edgeStyle=orthogonalEdgeStyle;rounded=0;orthogonalLoop=1;jettySize=auto;html=1;exitX=0.5;exitY=1;exitDx=0;exitDy=0;entryX=0.5;entryY=0;entryDx=0;entryDy=0;" edge="1" parent="1" source="mUoU4r-U4uNJ2KsjmGZh-58" target="mUoU4r-U4uNJ2KsjmGZh-59">
          <mxGeometry relative="1" as="geometry" />
        </mxCell>
        <mxCell id="mUoU4r-U4uNJ2KsjmGZh-58" value="arreglo [k] = arreglo izq[i]&lt;br&gt;i++;" style="rounded=0;whiteSpace=wrap;html=1;rotation=0;" vertex="1" parent="1">
          <mxGeometry x="770" y="695" width="120" height="60" as="geometry" />
        </mxCell>
        <mxCell id="mUoU4r-U4uNJ2KsjmGZh-59" value="k++" style="rounded=0;whiteSpace=wrap;html=1;" vertex="1" parent="1">
          <mxGeometry x="770" y="785" width="120" height="30" as="geometry" />
        </mxCell>
        <mxCell id="mUoU4r-U4uNJ2KsjmGZh-63" value="si" style="text;html=1;align=center;verticalAlign=middle;resizable=0;points=[];autosize=1;strokeColor=none;fillColor=none;" vertex="1" parent="1">
          <mxGeometry x="645" y="1068" width="30" height="30" as="geometry" />
        </mxCell>
        <mxCell id="mUoU4r-U4uNJ2KsjmGZh-64" value="no" style="text;html=1;align=center;verticalAlign=middle;resizable=0;points=[];autosize=1;strokeColor=none;fillColor=none;" vertex="1" parent="1">
          <mxGeometry x="635" y="1000" width="40" height="30" as="geometry" />
        </mxCell>
        <mxCell id="mUoU4r-U4uNJ2KsjmGZh-70" style="edgeStyle=orthogonalEdgeStyle;rounded=0;orthogonalLoop=1;jettySize=auto;html=1;exitX=0.5;exitY=1;exitDx=0;exitDy=0;entryX=0.5;entryY=0;entryDx=0;entryDy=0;" edge="1" parent="1" source="mUoU4r-U4uNJ2KsjmGZh-67" target="mUoU4r-U4uNJ2KsjmGZh-68">
          <mxGeometry relative="1" as="geometry" />
        </mxCell>
        <mxCell id="mUoU4r-U4uNJ2KsjmGZh-75" style="edgeStyle=orthogonalEdgeStyle;rounded=0;orthogonalLoop=1;jettySize=auto;html=1;exitX=0;exitY=0.5;exitDx=0;exitDy=0;entryX=0;entryY=0.5;entryDx=0;entryDy=0;" edge="1" parent="1" source="mUoU4r-U4uNJ2KsjmGZh-67" target="mUoU4r-U4uNJ2KsjmGZh-73">
          <mxGeometry relative="1" as="geometry" />
        </mxCell>
        <mxCell id="mUoU4r-U4uNJ2KsjmGZh-67" value="j&amp;lt; n2" style="rhombus;whiteSpace=wrap;html=1;" vertex="1" parent="1">
          <mxGeometry x="770" y="835" width="120" height="100" as="geometry" />
        </mxCell>
        <mxCell id="mUoU4r-U4uNJ2KsjmGZh-71" style="edgeStyle=orthogonalEdgeStyle;rounded=0;orthogonalLoop=1;jettySize=auto;html=1;exitX=0.5;exitY=1;exitDx=0;exitDy=0;entryX=0.5;entryY=0;entryDx=0;entryDy=0;" edge="1" parent="1" source="mUoU4r-U4uNJ2KsjmGZh-68" target="mUoU4r-U4uNJ2KsjmGZh-69">
          <mxGeometry relative="1" as="geometry" />
        </mxCell>
        <mxCell id="mUoU4r-U4uNJ2KsjmGZh-68" value="arreglo [k] = arreglo izq[i]&lt;br&gt;j++;" style="rounded=0;whiteSpace=wrap;html=1;rotation=0;" vertex="1" parent="1">
          <mxGeometry x="770" y="955" width="120" height="60" as="geometry" />
        </mxCell>
        <mxCell id="mUoU4r-U4uNJ2KsjmGZh-69" value="k++" style="rounded=0;whiteSpace=wrap;html=1;" vertex="1" parent="1">
          <mxGeometry x="770" y="1033" width="120" height="30" as="geometry" />
        </mxCell>
        <mxCell id="mUoU4r-U4uNJ2KsjmGZh-73" value="fin" style="ellipse;whiteSpace=wrap;html=1;" vertex="1" parent="1">
          <mxGeometry x="800" y="1085" width="60" height="50" as="geometry" />
        </mxCell>
      </root>
    </mxGraphModel>
  </diagram>
</mxfile>
